# xmcd
#
# Track frame offsets: 
#        150
#        15864
#        36801
#        58029
#        78553
#        105101
#        127186
#        149970
#        173018
#        190718
#        226048
#        245384
#        269728
#        289046
#
# Disc length: 4313 seconds
#
# Revision: 0
# Processed by: cddbd v1.5.2PL0 Copyright (c) Steve Scherf et al.
# Submitted via: ExactAudioCopy v1.0b3
#
DISCID=bd10d70e
DTITLE=The Black Tongued Bells - Every Tongue Has a Tale to Tell
DYEAR=2013
DGENRE=Blues
TTITLE0=Comin' Back for More
TTITLE1=Down in the Hood
TTITLE2=Jukin' Joint
TTITLE3=She Ain't Got the Time
TTITLE4=Door to Door Business
TTITLE5=The Midnight Porter
TTITLE6=Rattle Some Bones
TTITLE7=Long Way to Go
TTITLE8=Kingbee Jam
TTITLE9=Willie Lost It All
TTITLE10=Sixteen Tons
TTITLE11=Gimme That Rise
TTITLE12=Beautiful Bride
TTITLE13=Hello Misery
EXTD=
EXTT0=
EXTT1=
EXTT2=
EXTT3=
EXTT4=
EXTT5=
EXTT6=
EXTT7=
EXTT8=
EXTT9=
EXTT10=
EXTT11=
EXTT12=
EXTT13=
PLAYORDER=
